#!OML:ASF E:\emotionWalksFemale\Project 1\Capture day 1\Session 1\Female1.ASF
:FULLY-SPECIFIED
:DEGREES
932
root 8.82675 15.294 12.0608 -180.062 0.787872 -175.365
lowerback 5.33892 0.406296 2.2239
upperback -4.04524 0.792027 -0.407871
thorax -7.19619 0.30075 -1.77095
lowerneck -7.21014 3.52648 -2.5279
upperneck 30.0582 1.65063 3.75697
head 10.741 -0.191224 1.77212
rclavicle 3.97569e-016 7.95139e-016
rhumerus -47.4891 11.5249 -95.4088
rradius 40.6877
rwrist 1.1347
rhand 161.065 -70.556
rfingers 7.12502
rthumb -172.632 -40.7043
lclavicle 3.97569e-016 7.95139e-016
lhumerus -45.9318 11.6042 71.2021
lradius 39.5344
lwrist -8.53725
lhand -2.47383 -35.7106
lfingers 7.12502
lthumb 23.2189 -7.09029
rfemur 10.8268 10.9089 37.5879
rtibia 20.0204
rfoot -7.43658 -19.4377
rtoes 10.2612
lfemur -34.6873 -31.28 -2.03194
ltibia 25.2215
lfoot -28.4809 28.6584
ltoes 3.26968
933
root 8.80894 15.2978 11.9898 -179.934 0.639966 -175.312
lowerback 5.32048 0.429078 2.28256
upperback -4.16274 0.833283 -0.445649
thorax -7.30833 0.317357 -1.8496
lowerneck -7.08617 3.49786 -2.56733
upperneck 29.922 1.60369 3.86666
head 10.6642 -0.197732 1.81115
rclavicle -4.67144e-015 2.38542e-014
rhumerus -47.4217 11.3039 -95.3394
rradius 40.5964
rwrist 1.91685
rhand 160.735 -71.1149
rfingers 7.12502
rthumb -172.951 -41.2522
lclavicle -4.67144e-015 2.38542e-014
lhumerus -46.1406 11.5284 71.0485
lradius 39.6605
lwrist -8.51861
lhand -2.47382 -35.5045
lfingers 7.12502
lthumb 23.2189 -6.88418
rfemur 10.7938 10.5466 37.4956
rtibia 20.2504
rfoot -7.01718 -19.0673
rtoes 9.31133
lfemur -34.6887 -31.3472 -1.95469
ltibia 25.1525
lfoot -29.0177 28.5851
ltoes 4.28477
934
root 8.78866 15.2985 11.915 -179.92 0.451195 -175.235
lowerback 5.35138 0.457847 2.38594
upperback -4.19974 0.883911 -0.448809
thorax -7.36247 0.336508 -1.91782
lowerneck -7.05401 3.40752 -2.6111
upperneck 29.7691 1.52749 3.8385
head 10.603 -0.226235 1.80017
rclavicle 2.5842e-015 1.59028e-014
rhumerus -47.228 11.2453 -95.2337
rradius 40.361
rwrist 2.55816
rhand 162.189 -70.7669
rfingers 7.12502
rthumb -171.547 -40.956
lclavicle 2.5842e-015 1.59028e-014
lhumerus -46.3588 11.4723 70.954
lradius 39.8084
lwrist -8.57906
lhand -2.55506 -35.6348
lfingers 7.12502
lthumb 23.1409 -7.00469
rfemur 10.8905 10.1812 37.4557
rtibia 20.4886
rfoot -6.81905 -18.7975
rtoes 8.29658
lfemur -34.5246 -31.4204 -1.98495
ltibia 25.0705
lfoot -29.3301 28.6778
ltoes 4.96727
935
root 8.76726 15.3003 11.8396 -179.894 0.405124 -175.162
lowerback 5.24961 0.5066 2.45405
upperback -4.19945 0.95726 -0.398827
thorax -7.29934 0.372123 -1.91033
lowerneck -6.93451 3.35745 -2.68757
upperneck 29.6314 1.524 3.719
head 10.5283 -0.241588 1.76804
rclavicle 8.44835e-015 1.03368e-014
rhumerus -47.1753 11.5286 -95.3181
rradius 40.4264
rwrist 1.76574
rhand 161.882 -70.4909
rfingers 7.12502
rthumb -171.844 -40.6683
lclavicle 8.44835e-015 1.03368e-014
lhumerus -46.4222 11.6848 70.8742
lradius 39.6942
lwrist -8.7736
lhand -2.49253 -35.9173
lfingers 7.12502
lthumb 23.2009 -7.29468
rfemur 10.9852 10.0033 37.4269
rtibia 20.7027
rfoot -6.49253 -18.6165
rtoes 7.75486
lfemur -34.3138 -31.4323 -2.02531
ltibia 25.0038
lfoot -29.4243 28.8761
ltoes 4.32805
936
root 8.74501 15.305 11.7609 -179.896 0.391456 -175.116
lowerback 5.07163 0.568277 2.50743
upperback -4.13972 1.03782 -0.392369
thorax -7.12741 0.411982 -1.93854
lowerneck -6.97167 3.27939 -2.72887
upperneck 29.5635 1.46342 3.65116
head 10.513 -0.271599 1.74552
rclavicle 6.16232e-015 1.98785e-014
rhumerus -47.057 11.683 -95.3788
rradius 40.6183
rwrist 0.882083
rhand 161.474 -70.3175
rfingers 7.12502
rthumb -172.238 -40.48
lclavicle 6.16232e-015 1.98785e-014
lhumerus -46.3397 11.7655 70.8629
lradius 39.5797
lwrist -8.74713
lhand -2.39226 -36.0428
lfingers 7.12502
lthumb 23.2971 -7.43235
rfemur 11.1028 9.81126 37.3669
rtibia 20.9313
rfoot -6.04343 -18.4242
rtoes 8.1091
lfemur -34.0203 -31.3435 -2.19462
ltibia 24.9667
lfoot -29.3327 29.0068
ltoes 2.91524
937
root 8.72133 15.3072 11.6807 -179.89 0.389867 -175.038
lowerback 5.01125 0.613833 2.58022
upperback -4.12857 1.10703 -0.336629
thorax -7.07696 0.445049 -1.92727
lowerneck -6.94892 3.21325 -2.86906
upperneck 29.418 1.4395 3.61077
head 10.4535 -0.289311 1.75266
rclavicle -3.57812e-015 6.36111e-015
rhumerus -46.9989 11.9302 -95.3383
rradius 39.7948
rwrist 3.45675
rhand 162.426 -70.8956
rfingers 7.12502
rthumb -171.318 -41.0942
lclavicle -3.57812e-015 6.36111e-015
lhumerus -46.4367 11.8737 70.8321
lradius 39.5399
lwrist -8.68203
lhand -2.57487 -36.3148
lfingers 7.12502
lthumb 23.1219 -7.68229
rfemur 11.1918 9.66911 37.3497
rtibia 21.2107
rfoot -5.59211 -18.2595
rtoes 8.72326
lfemur -33.7037 -31.1717 -2.34575
ltibia 24.8912
lfoot -29.463 28.9894
ltoes 2.72159
938
root 8.69803 15.309 11.6043 -179.83 0.380006 -174.918
lowerback 4.99784 0.659979 2.70593
upperback -4.13679 1.18375 -0.28041
thorax -7.07332 0.478547 -1.94714
lowerneck -6.91355 3.16237 -3.02601
upperneck 29.2197 1.42501 3.66222
head 10.37 -0.289996 1.79638
rclavicle 9.93923e-015 8.74653e-015
rhumerus -46.8929 12.0999 -95.328
rradius 39.8254
rwrist 3.27391
rhand 162.256 -71.0727
rfingers 7.12502
rthumb -171.482 -41.2645
lclavicle 9.93923e-015 8.74653e-015
lhumerus -46.4846 12.1894 70.6999
lradius 39.4112
lwrist -8.82554
lhand -2.80602 -36.3568
lfingers 7.12502
lthumb 22.9001 -7.69666
rfemur 11.1622 9.45781 37.3302
rtibia 21.5528
rfoot -5.16818 -17.9928
rtoes 9.61297
lfemur -33.4327 -30.9468 -2.41809
ltibia 24.7541
lfoot -29.7319 28.7774
ltoes 3.72869
939
root 8.67346 15.3168 11.5242 -179.798 0.32689 -174.913
lowerback 4.89164 0.749023 2.76857
upperback -4.09372 1.29937 -0.332235
thorax -6.95743 0.532739 -2.04605
lowerneck -6.99951 3.06368 -2.99506
upperneck 29.0712 1.32248 3.68972
head 10.3361 -0.310225 1.79225
rclavicle -1.2921e-014 3.97569e-015
rhumerus -46.7519 12.0917 -95.4376
rradius 39.997
rwrist 2.15474
rhand 161.703 -70.7633
rfingers 7.12502
rthumb -172.016 -40.9341
lclavicle -1.2921e-014 3.97569e-015
lhumerus -46.5005 12.1094 70.6648
lradius 39.5019
lwrist -8.66587
lhand -2.69099 -36.0616
lfingers 7.12502
lthumb 23.0105 -7.41514
rfemur 11.1255 9.11839 37.1572
rtibia 21.9752
rfoot -4.77275 -17.6917
rtoes 10.4421
lfemur -33.112 -30.8892 -2.63757
ltibia 24.597
lfoot -29.6256 28.8869
ltoes 3.82509
940
root 8.64631 15.322 11.4401 -179.702 0.327996 -174.942
lowerback 4.81088 0.873011 2.8366
upperback -4.18442 1.47355 -0.378034
thorax -6.99551 0.614966 -2.15041
lowerneck -6.81926 2.96649 -3.00412
upperneck 28.8805 1.21207 3.67315
head 10.2349 -0.354041 1.77364
rclavicle 9.34288e-015 -3.97569e-015
rhumerus -46.7139 12.0637 -95.4141
rradius 40.0424
rwrist 1.49413
rhand 161.428 -70.5133
rfingers 7.12502
rthumb -172.282 -40.6742
lclavicle 9.34288e-015 -3.97569e-015
lhumerus -46.7842 11.7358 70.7342
lradius 39.7075
lwrist -8.41125
lhand -2.67196 -35.9706
lfingers 7.12502
lthumb 23.0288 -7.32639
rfemur 11.0621 8.93321 36.9782
rtibia 22.3818
rfoot -4.21363 -17.5272
rtoes 11.088
lfemur -32.8604 -30.8031 -2.86273
ltibia 24.454
lfoot -29.4245 29.0559
ltoes 3.01637
941
root 8.62002 15.3202 11.355 -179.657 0.248069 -174.886
lowerback 4.82681 0.942711 2.93299
upperback -4.17221 1.57469 -0.371618
thorax -6.9841 0.660147 -2.20852
lowerneck -7.02999 2.85779 -3.11026
upperneck 28.8119 1.1232 3.69163
head 10.253 -0.384441 1.79363
rclavicle -7.25564e-015 -1.66979e-014
rhumerus -46.4498 12.1273 -95.3079
rradius 39.9649
rwrist 1.44283
rhand 161.221 -70.5983
rfingers 7.12502
rthumb -172.481 -40.7519
lclavicle -7.25564e-015 -1.66979e-014
lhumerus -46.7059 11.7707 70.7108
lradius 39.562
lwrist -8.49019
lhand -2.84428 -35.859
lfingers 7.12502
lthumb 22.8634 -7.19425
rfemur 11.0526 8.74082 36.9366
rtibia 22.7978
rfoot -3.69974 -17.4079
rtoes 11.9479
lfemur -32.6033 -30.6132 -3.05417
ltibia 24.3603
lfoot -29.3131 28.9503
ltoes 2.35357
942
root 8.59321 15.3192 11.2604 -179.804 -0.0762685 -174.859
lowerback 4.65254 1.02301 2.90033
upperback -4.01031 1.49134 -0.291538
thorax -6.71399 0.551122 -2.08118
lowerneck -7.05189 2.77727 -3.33965
upperneck 28.6129 1.09394 3.72026
head 10.182 -0.398777 1.84122
rclavicle 1.3418e-015 -1.11319e-014
rhumerus -46.2635 12.2751 -95.1605
rradius 40.0009
rwrist 1.35978
rhand 161.086 -70.5613
rfingers 7.12502
rthumb -172.612 -40.7103
lclavicle 1.3418e-015 -1.11319e-014
lhumerus -46.5954 12.1345 70.6173
lradius 39.31
lwrist -8.62982
lhand -2.59627 -35.9167
lfingers 7.12502
lthumb 23.1014 -7.28161
rfemur 11.2919 8.18294 36.8652
rtibia 23.1952
rfoot -3.35376 -17.2788
rtoes 13.0776
lfemur -32.1285 -30.5242 -3.46594
ltibia 24.2659
lfoot -28.9152 28.7927
ltoes 1.41893
943
root 8.56057 15.3245 11.1668 -179.671 0.439629 -174.806
lowerback 4.66015 1.11891 3.0847
upperback -4.19157 1.82693 -0.287648
thorax -6.89229 0.782567 -2.22756
lowerneck -6.81357 2.75425 -3.51926
upperneck 28.4083 1.07396 3.83523
head 10.0575 -0.409123 1.90684
rclavicle -9.0447e-015 0
rhumerus -46.3676 12.3522 -95.2236
rradius 39.8404
rwrist 1.81795
rhand 161.247 -70.5191
rfingers 7.12502
rthumb -172.457 -40.6736
lclavicle -9.0447e-015 0
lhumerus -47.0092 12.2217 70.4015
lradius 39.3775
lwrist -8.65318
lhand -2.38767 -35.9907
lfingers 7.12502
lthumb 23.3015 -7.38081
rfemur 11.2547 8.24252 36.6383
rtibia 23.613
rfoot -2.76833 -16.8938
rtoes 13.0829
lfemur -31.7055 -30.3824 -3.57286
ltibia 24.1367
lfoot -29.348 28.8755
ltoes 2.72043
944
root 8.53848 15.3211 11.0855 -179.616 -0.221542 -174.889
lowerback 4.81893 1.11714 3.0431
upperback -4.31678 1.6202 -0.352031
thorax -7.12487 0.587699 -2.24587
lowerneck -6.77712 2.66847 -3.53692
upperneck 28.3115 0.977479 3.82449
head 10.0194 -0.448626 1.8959
rclavicle 1.5704e-014 1.03368e-014
rhumerus -46.2605 12.3402 -95.2233
rradius 39.6089
rwrist 2.49687
rhand 161.345 -70.7386
rfingers 7.12502
rthumb -172.362 -40.8965
lclavicle 1.5704e-014 1.03368e-014
lhumerus -47.2852 12.2214 70.242
lradius 39.5013
lwrist -8.74822
lhand -2.3856 -35.9004
lfingers 7.12502
lthumb 23.3035 -7.29077
rfemur 11.2706 7.77548 36.5639
rtibia 23.8953
rfoot -2.34351 -17.1478
rtoes 12.2779
lfemur -31.5211 -29.784 -4.19869
ltibia 24.0537
lfoot -27.3444 28.4586
ltoes -2.7103
